<?xml version="1.0" encoding="UTF-8"?>
<svg id="_レイヤー_1" data-name="レイヤー_1" xmlns="http://www.w3.org/2000/svg" viewBox="0 0 321 93.31">
  <defs>
    <style>
      .cls-1 {
        fill: #297fe2;
      }

      .cls-2 {
        fill: #333;
      }

      @media (prefers-color-scheme: dark) {
      .cls-2 {
      fill: white; 
      }
      }

    </style>
  </defs>
  <g>
    <g>
      <path class="cls-1" d="M30.11,13.63v38.6h-2.11V18.7S7.98,38.72,7.98,38.72l-1.48-1.48,7.1-7.05L2.11,18.7v33.53H0V13.63s15.03,15.08,15.03,15.08l15.08-15.08Z"/>
      <path class="cls-1" d="M51.79,40.18l-22.59,22.55-15.63-15.5,22.59-22.59,15.63,15.54ZM48.84,40.18l-12.67-12.58-19.55,19.64,12.58,12.54,19.64-19.6Z"/>
    </g>
    <g>
      <g>
        <path class="cls-1" d="M53.49,22.9c-2.16-2.16-4.99-3.23-7.81-3.22v2.09c2.29,0,4.59.86,6.33,2.61,1.75,1.75,2.61,4.04,2.61,6.34h2.09c0-2.83-1.07-5.66-3.22-7.81Z"/>
        <path class="cls-1" d="M50.54,25.85c-1.34-1.34-3.1-2-4.86-1.99v2.09c1.22,0,2.45.45,3.38,1.38s1.39,2.16,1.38,3.38h2.09c0-1.76-.66-3.52-1.99-4.86Z"/>
        <path class="cls-1" d="M47.58,28.81c-.52-.52-1.21-.78-1.9-.77v2.09c.15,0,.31.04.43.16s.17.27.16.43h2.09c0-.69-.25-1.38-.77-1.9Z"/>
      </g>
      <path class="cls-1" d="M46.11,30.28c-.12-.12-.27-.17-.43-.16v.53s.06.06.06.06h.53c0-.15-.04-.31-.16-.43Z"/>
    </g>
  </g>
  <g>
    <rect class="cls-2" x="163.85" y="34.06" width="46.3" height="2.79"/>
    <rect class="cls-2" x="210.01" y="46.04" width="28.93" height="3.54"/>
    <rect class="cls-2" x="291.63" y="46.04" width="28.93" height="3.54"/>
    <path class="cls-2" d="M127.99,43.06s12.72,3.04,26.95,11.91l3.13-8.08c-10.79-5.65-29.78-6.62-29.78-6.62l-.3,2.79Z"/>
    <path class="cls-2" d="M74.38,37.85s16.42,6.09,31.22,22.06l4.76-5.98c-11.56-10.76-34.59-18.35-34.59-18.35l-1.4,2.27Z"/>
    <rect class="cls-2" x="122.53" y="23.09" width="7.31" height="46.5"/>
    <rect class="cls-2" x="191.38" y="23.09" width="7.31" height="46.5"/>
    <g>
      <circle class="cls-2" cx="146.63" cy="26.36" r="3.27"/>
      <circle class="cls-2" cx="154.79" cy="26.36" r="3.27"/>
    </g>
    <g>
      <circle class="cls-2" cx="283.46" cy="26.36" r="3.27"/>
      <circle class="cls-2" cx="291.63" cy="26.36" r="3.27"/>
    </g>
    <path class="cls-2" d="M254.88,44.3s8.9,4.3,17.97,13.13l3.61-5.46c-7.06-5.91-20.91-9.68-20.91-9.68l-.67,2.01Z"/>
    <path class="cls-2" d="M258.94,23.09c-.07,4.33-1.31,18.48-14.36,24.63l1.74,1.71c8.55-2.98,20.02-9.91,20.02-25.58v-.75h-7.4Z"/>
    <path class="cls-2" d="M191.97,35.61h-8.03c-1.96,10.02-7.07,23.37-20.24,29.23l.77,2.33c8.84-3.5,23.33-12.09,27.5-31.56Z"/>
    <rect class="cls-2" x="258.9" y="32.04" width="28.46" height="2.79"/>
    <path class="cls-2" d="M278.78,32.04c-.27,7.94-3.02,31.35-26.12,35.56l.71,1.98s34.04-3.92,34.08-37.55h-8.67Z"/>
    <path class="cls-2" d="M98.61,23.09c0,.55.4,35.16-28.51,44.21l.75,2.29s36.45-7.54,36.46-46.5h-8.7Z"/>
  </g>
  <g>
    <path class="cls-2" d="M99.04,2.65v1.06h-4.87v-1.06h4.87ZM99.53.64h7.09v10.56c0,1.39-.36,1.91-2.4,1.88-.07-.45-.22-.87-.46-1.37.14.03.29.06.7.06.74,0,.87-.1.87-.91V1.8h-4.55v4.06c0,4.2-.49,5.74-.92,7.14-.56-.31-1.01-.43-1.08-.45v.36h-1.23v-.52h-1.71v.71h-1.29v-4.73h4.23v3.56c.76-2.06.76-4.52.76-6.09V.64ZM98.56,4.56v1.05h-3.94v-1.05h3.94ZM98.56,6.46v1.06h-3.94v-1.06h3.94ZM98.58.68v1.12h-3.94V.68h3.94ZM95.83,9.47v1.78h1.71v-1.78h-1.71ZM104.85,3.2v1.04h-1.27v.98h1.37v1.06h-3.81v-1.06h1.27v-.98h-1.18v-1.04h1.18v-1.08l1.16.07c.1,0,.28.03.28.18,0,.08-.07.13-.28.22v.6h1.27ZM104.64,7.12v3.61h-2.23v.77h-1.13v-4.38h3.36ZM102.41,8.21v1.39h1.15v-1.39h-1.15Z"/>
    <path class="cls-2" d="M109.49,3.03v-1.22h3.11V.16l1.54.07c.14,0,.34.03.34.15,0,.08-.04.11-.34.28v1.15h2.9v1.22h-.83c-.35.6-1.04,1.42-1.65,1.96,1.53.59,2.41.7,2.83.74-.36.56-.49.77-.66,1.26-.1-.03-.38-.1-.43-.13.03.04.04.06.04.1,0,.14-.17.2-.29.22v5.87h-1.43v-2.55h-2.62c-.36,1.46-.95,2.24-1.33,2.7-.49-.34-.8-.48-1.37-.59,1.33-1.49,1.51-3,1.55-3.99.03-.53.06-1.36.03-1.86-.5.14-.64.17-.9.22-.2-.55-.57-1.09-.78-1.3,1.04-.14,2.06-.45,2.98-.76-.35-.28-.84-.69-1.62-1.91h-1.06ZM116.05,6.8c-.92-.27-1.75-.53-2.66-1.05-.87.48-1.95.84-2.28.95l1.16.1c.11.01.29.04.29.17,0,.14-.18.2-.29.22v.15h2.35v-.67l1.43.12ZM112,3.03c.39.52.77.95,1.33,1.34.55-.36,1.05-.81,1.41-1.34h-2.75ZM114.62,9.43v-1.02h-2.38c-.01.24-.01.52-.06,1.02h2.44ZM118.86,1.62c.22.01.35.06.35.2,0,.18-.21.25-.34.29v7.55h-1.34V1.53l1.33.08ZM121.82.31c.15.01.32.01.32.18,0,.13-.11.2-.28.31v10.41c0,1.05-.11,2.06-2.66,1.91-.01-.46-.11-.76-.59-1.57.45.06,1.04.1,1.13.1.64,0,.64-.29.64-.95V.23l1.43.08Z"/>
    <path class="cls-2" d="M132.02,8.72h5.74v1.15h-4.66c.83.52,2.31,1.32,4.73,1.86-.46.52-.64.78-.88,1.2-1.71-.48-3.45-1.34-4.93-2.63v2.79h-1.37v-2.73c-1.01.92-2.83,2.06-4.73,2.69-.24-.46-.74-.97-.91-1.13,2.21-.57,3.75-1.39,4.64-2.04h-4.69v-1.15h5.7v-.7h-2.07V3.52h1.74c.18-.29.29-.5.49-.98l1.15.31c.07.01.21.06.21.18,0,.18-.25.2-.39.2-.06.13-.08.18-.14.29h2.52v4.5h-1.74c.03.18-.27.25-.39.27v.43ZM128.42.21l1.5.1c.11.01.27.06.27.2,0,.17-.13.2-.41.25v.45h3.1V.2l1.53.08c.17.01.31.07.31.18,0,.14-.08.18-.39.28v.46h3.38v1.09h-3.38v.8h-1.44v-.8h-3.1v.8h-1.36v-.8h-3.46v-1.09h3.46V.21ZM124.96,6.74c.38-.06.88-.15,3.25-1.07-.04.34-.06.53-.06.76,0,.2.01.39.01.52-1.69.74-2.21.91-2.54,1.01-.04.18-.08.35-.24.35-.11,0-.17-.17-.2-.31l-.24-1.26ZM126.18,2.85c.73.48,1.44.99,2.03,1.64-.28.21-.46.38-.98.91-.66-.71-1.18-1.15-1.93-1.68l.88-.87ZM129.82,5.27h3.08v-.84h-3.08v.84ZM132.91,6.15h-3.08v.88h3.08v-.88ZM135.01,5.65c.76.37,1.89.98,2.63,1.61-.34.35-.5.56-.83,1.05-.91-.77-1.6-1.21-2.51-1.65l.7-1.01ZM137.11,3.42c.1.04.21.13.21.22,0,.12-.1.2-.24.2-.07,0-.13-.01-.21-.03-.41.48-.81.95-1.23,1.41-.15-.11-.66-.42-1.12-.57.98-1.13,1.18-1.53,1.33-1.81l1.26.57Z"/>
    <path class="cls-2" d="M152.86,5.24v1.54c0,1.39-.13,4.82-.99,5.67-.53.52-1.5.69-2.37.66-.06-.5-.15-.88-.48-1.49.21.03.78.08.98.08.63,0,1.01-.08,1.25-2.23.06-.48.13-2.61.14-3.04h-8.1c-.14,2.26-.57,4.71-1.76,6.62-.29-.2-.7-.45-1.44-.63,1.13-1.74,1.74-3.78,1.74-8.33V.61h10.24v3.6h-8.73c0,.17-.01.88-.01,1.04h9.54ZM143.33,1.77v1.3h7.16v-1.3h-7.16ZM149.76,7.4v3.49h-4.3v1.01h-1.44v-4.5h5.74ZM145.46,8.52v1.23h2.87v-1.23h-2.87Z"/>
    <path class="cls-2" d="M168.03,2.4v8.77c0,1.9-1.13,1.93-2.55,1.96-.06-.52-.31-1.16-.62-1.57.21.03.63.08,1.05.08.64,0,.64-.28.64-.88V3.75h-8.74v9.31h-1.46V2.4h4.01c.21-.48.56-1.34.81-2.27l1.54.21c.13.01.28.04.28.2,0,.14-.2.18-.34.21-.39,1.05-.43,1.18-.67,1.65h6.04ZM164.88,5.1v5.17h-4.01v.88h-1.4v-6.05h5.41ZM160.88,6.42v2.58h2.61v-2.58h-2.61Z"/>
    <path class="cls-2" d="M174.36,1.11c.15.04.22.06.22.17,0,.17-.22.2-.32.21-.49,1.58-.69,3.39-.69,5.06,0,.66.03,1.99.35,3.12.07-.17.1-.28.45-1.22.18-.49.41-.98.56-1.3.55.43.78.55,1.06.66-.74,1.29-1.46,3.38-1.53,4.37l-1.18.27c-1.12-2.31-1.15-5.49-1.15-6.18,0-.52,0-2.84.69-5.56l1.53.41ZM181.25.66c.29.03.38.04.38.15,0,.14-.15.18-.25.21.01,1.95.01,2.17.03,2.77,1.32-.27,1.86-.48,2.31-.66-.01.62-.01.87.03,1.44-.34.13-.9.34-2.33.59,0,2.48,0,3.64-.6,4.99-.78,1.71-1.88,2.54-2.33,2.89-.38-.53-.97-.9-1.19-1.02,2.55-1.78,2.79-3.45,2.72-6.64-.41.04-1.9.2-3.56.15l-.13-1.48c.46.05.71.08,1.37.08.38,0,1.27-.01,2.28-.13-.01-.52-.1-2.33-.27-3.53l1.53.18Z"/>
    <path class="cls-2" d="M192.34.97l4.34,11.04h-1.83l-.88-2.34h-5.31l-.88,2.34h-1.83l4.33-11.04h2.07ZM191.3,2.62l-2.16,5.71h4.31l-2.16-5.71Z"/>
    <path class="cls-2" d="M201.49,12.01h-1.75V.97h1.75v11.04Z"/>
    <path class="cls-2" d="M216.36,5.89h-1.15v1.71h2.97v1.32h-2.97v1.89c0,.56.06.69.87.69h.88c.63,0,1.04-.04,1.29-1.67.48.34.76.5,1.29.73-.56,1.92-.83,2.26-2.44,2.26h-1.61c-1.69,0-1.69-.95-1.69-1.58v-2.31h-1.71c-.53,2.35-2.34,3.68-4.24,4.2-.14-.24-.35-.63-.87-1.21,1.85-.31,3.33-1.6,3.71-3h-2.66v-1.32h2.87c.01-.27.01-.43.01-.74v-.97h-.99v-.66c-.88.77-1.58,1.26-2.59,1.77-.25-.37-.6-.76-1.01-1.04,1.25-.46,2.31-1.32,2.42-1.43-.97-.88-1.06-.98-1.5-1.3l.92-.84c.7.48,1.29.99,1.55,1.25.39-.41.87-.92,1.06-1.43h-3.31V1h4.92l.36.56c-.48,1.13-1.27,2.13-2.1,2.98h5.1c-1.46-1.42-2.4-3.04-2.69-3.66l1.09-.62c.29.55.53.88.95,1.47.11-.11.74-.73,1.16-1.41l1.05.7c.1.07.14.14.14.21,0,.2-.31.17-.48.14-.35.48-.43.56-1.16,1.29.31.36.55.59.76.78.36-.35.87-.9,1.39-1.65l1.06.76c.11.08.15.11.15.2,0,.17-.24.15-.42.15-.52.6-.55.64-1.25,1.32.52.38,1.3.91,2.1,1.27-.18.17-.62.62-.94,1.21-1.05-.57-1.48-.85-2.33-1.6v.78ZM212.28,5.89v1.04c0,.24,0,.41-.01.67h1.53v-1.71h-1.51Z"/>
    <path class="cls-2" d="M222.35,3.8c.78.32,1.86.87,2.68,1.46-.39.67-.52.9-.67,1.27-1.5-.88-1.67-.98-2.66-1.44l.66-1.29ZM221.84,12.02c.99-1.2,2.27-3.42,2.8-4.65.14.18.41.53,1.04.98-.55,1.22-1.32,2.66-2.28,4.15.06.15.08.27.08.31,0,.11-.04.18-.15.18-.04,0-.17-.08-.28-.15l-1.2-.81ZM223.76.12c.18.11,1.4.79,2.3,1.47-.34.48-.5.73-.77,1.23-.56-.45-1.53-1.12-2.28-1.53l.76-1.18ZM234.62,2.54v1.29h-3.67v2.82h2.91v1.36h-2.91v3.28h3.87v1.37h-9.22v-1.37h3.88v-3.28h-2.94v-1.36h2.94v-2.82h-3.52v-1.29h3.89c-.63-.71-1.05-1.11-1.65-1.6l1.19-.92c.92.73,1.4,1.23,2.07,1.99-.28.17-.55.34-.78.53h3.94Z"/>
    <path class="cls-2" d="M239.13,3.65c.9.35,2.69,1.25,3.56,1.9-.48.49-.83,1.09-.91,1.25-1.39-1.09-3.05-1.76-3.47-1.93l.83-1.22ZM239.16,11.34c4.02-1.37,7.76-4.03,10.2-7.79.36.57.52.76.97,1.22-3,4.47-7.79,6.98-9.99,7.79-.01.13-.06.34-.22.34-.08,0-.15-.08-.21-.2l-.74-1.36ZM240.61.47c1.86.69,2.93,1.27,3.74,1.79-.28.31-.69.9-.9,1.23-1.3-.94-2.58-1.49-3.67-1.89l.83-1.13Z"/>
    <path class="cls-2" d="M254.41,2.79v-1.37h7.07c.22,0,.73-.03.95-.1l.8.79c-.24.29-.38.56-.53.91-.6,1.44-.99,2.34-1.89,3.74,1.19.85,3.25,2.59,4.61,4.31-.59.59-.66.64-1.13,1.22-.77-1.09-1.98-2.72-4.26-4.41-2.07,2.61-4.45,3.99-5.88,4.59-.31-.59-.49-.85-.97-1.28,2.21-.8,3.87-2,5.44-3.87,1.36-1.62,1.95-3.04,2.45-4.54h-6.65Z"/>
    <path class="cls-2" d="M268.72,6.2v-1.33h11.79v1.33h-4.86c-.06,2.61-.84,3.89-1.58,4.66-.45.48-1.42,1.4-3.19,1.98-.17-.25-.45-.64-1.08-1.18,4.06-1.13,4.34-3.61,4.38-5.46h-5.46ZM278.61,1.14v1.33h-7.91v-1.33h7.91Z"/>
    <path class="cls-2" d="M292.51,5.24c1.51,1.65,3.24,4.36,3.74,5.74-.18.12-.85.6-1.23.99-.24-.63-.46-1.15-.84-1.86-5.21.91-5.79,1.01-9.53,1.5-.07.21-.13.25-.22.25-.11,0-.18-.11-.21-.25l-.32-1.4c.38-.01.69-.03,1.48-.1,1.13-2.16,2.68-6.02,3.45-9.44l1.54.42c.17.04.27.1.27.2,0,.18-.25.22-.34.24-.22.6-1.13,3.32-1.34,3.87-.57,1.54-1.22,3.07-1.95,4.55,1.5-.18,3.14-.45,6.5-.99-.91-1.42-1.62-2.3-2.24-2.96l1.25-.76Z"/>
  </g>
  <g>
    <path class="cls-2" d="M165.05,93.31c-2.27-1.3-5.94-2.47-9.24-2.93-.34-.05-.83-.08-1.2-.08l.42-1.12h.08c3.1.09,6.31.61,9.59,1.58.34.11.55.18,1.08.38l.08.03-.8,2.13ZM164.55,84c-1.7-.94-5.05-1.77-7.58-1.9-.41-.03-.84-.03-1.3-.03l.29-1.11h.11l.83.02h.37c3.1.02,5.82.37,7.97,1.04l-.68,1.98ZM163.41,87.99c-.92-.69-3.48-1.47-6-1.83-.28-.05-.74-.08-1.15-.08l.34-1.07h.06c2.78.09,4.9.34,6.51.77.08.03.18.05.34.09.29.08.43.12.66.2l-.75,1.92Z"/>
    <path class="cls-2" d="M169.06,93.15c.06-.35.09-.57.09-.86v-11.08c0-.26-.03-.49-.09-.86h2.21c-.06.34-.09.61-.09.86v3.42c2.41.48,4.6,1.27,6.09,2.23.61.4.74.49.88.57l-1.38,1.96c-1.26-1.44-3.62-3.1-5.59-3.91v6.82c0,.28.03.54.09.86h-2.21ZM175.94,80.6v2.46h-1.04v-2.46h1.04ZM177.75,80.6v2.46h-1.04v-2.46h1.04Z"/>
    <path class="cls-2" d="M179.22,92.12c1.89-.86,2.96-3.32,2.89-6.63v-3.15c0-.28-.03-.51-.09-.86h2.15c-.06.32-.09.6-.09.86v3.15c-.03,3.59-1.07,5.53-3.75,6.88-.23.11-.49.29-.61.45l-.49-.69ZM186.06,81.65c0-.28-.03-.51-.09-.86h2.15c-.06.32-.09.6-.09.86v8.4c2.16-.45,4.7-3.07,5.16-5.37l.02-.06.83.38c-.23.4-.25.42-.43.98-1.29,3.79-3.68,5.86-7.54,6.57v-10.9Z"/>
    <path class="cls-2" d="M195.16,81.8c.34.06.61.09.86.09h9.61c-.29-.35-.45-.75-.45-1.2,0-1,.83-1.83,1.83-1.83s1.83.84,1.83,1.83-.83,1.83-1.83,1.83h-.15c-.32,5.91-3.12,9.26-8.66,10.33-.12.03-.21.06-.32.09l-.14.06c-.06.02-.12.05-.18.08l-.05.02-.31-.86c1.12.11,3.5-1.21,4.67-2.56,1.57-1.75,2.36-3.9,2.56-6.98h-8.41c-.26,0-.49.03-.86.09v-.98ZM205.83,80.7c0,.64.54,1.18,1.2,1.18s1.17-.54,1.17-1.18-.54-1.18-1.18-1.18-1.18.55-1.18,1.18Z"/>
    <path class="cls-2" d="M210.59,85.21c-.26,0-.52.03-.86.09v-.98c.31.06.6.09.86.09h11.21c-.18,2.43-1.01,4.38-2.44,5.74-1.49,1.43-3.95,2.49-6.42,2.76-.26.05-.58.14-.75.25l-.29-.89c.88.08,2.96-.71,4.1-1.55,1.89-1.3,3.07-3.27,3.3-5.51h-8.7ZM220.66,81.83c-.37-.06-.55-.09-.86-.09h-8.07c-.26,0-.52.03-.86.09v-.98c.31.06.6.09.86.09h8.07c.28,0,.52-.03.86-.09v.98Z"/>
    <path class="cls-2" d="M228.01,85.79c-.69-1.3-3.25-3.73-4.13-3.9l.63-.94c.23.21.38.29.86.49,1.01.45,2.46,1.27,3.47,2.04.18.15.43.32.71.54l-1.54,1.77ZM224.51,90.64c5.08-.17,9.24-2.92,10.44-6.88.08-.25.12-.49.14-.77l.86.35c-.17.34-.18.4-.29.92-.97,4.53-4.01,7.17-9.5,8.26-.28.06-.51.12-.94.29l-.71-2.18Z"/>
  </g>
  <rect class="cls-2" x="70.09" y="86.48" width="79.25" height=".5"/>
  <rect class="cls-2" x="240.56" y="86.48" width="80" height=".5"/>
</svg>