<?xml version="1.0" encoding="UTF-8"?>
<svg id="_レイヤー_1" data-name="レイヤー 1" xmlns="http://www.w3.org/2000/svg" viewBox="0 0 462.61 102.12">
  <defs>
    <style>
      .cls-1 {
        fill: #7ac943;
      }

      .cls-2 {
        fill: #333;
      }

      @media (prefers-color-scheme: dark) {
      .cls-2 {
      fill: white; 
      }
      }
    </style>
  </defs>
  <path class="cls-1" d="M49.47,36.7c1.38.96,3.06,1.53,4.86,1.53,4.71,0,8.55-3.83,8.55-8.55s-3.83-8.55-8.55-8.55-8.55,3.83-8.55,8.55c0,1.81.57,3.48,1.53,4.86l-3.82,3.82v-15.99l-21.78,21.78L0,22.36v55.75h3.05V29.68l16.59,16.59-10.25,10.19,2.13,2.13,28.91-28.91v11.72l-12.88,12.88,12.88,12.88v10.95h3.05v-7.9l7.95,7.95-8.88,8.88-12.7-12.36-2.13,2.19,14.85,14.46,13.16-13.16-12.26-12.26v-23.23l5.97-5.97ZM54.33,24.18c3.03,0,5.5,2.47,5.5,5.5s-2.47,5.5-5.5,5.5-5.5-2.47-5.5-5.5,2.47-5.5,5.5-5.5ZM40.44,62.85l-8.57-8.57,8.57-8.57v17.13Z"/>
  <g>
    <path class="cls-2" d="M103.61,5.21l-1.18-1.15c-.37.15-.73.33-1.38.33h-5.72c.57-1.13.69-1.39.89-1.84.18,0,.49-.06.49-.28,0-.19-.18-.28-.28-.32l-1.99-.95c-1.36,3.9-3.95,7.42-6.96,9.93.73.58.79.67,1.63,1.56,2.22-2.06,3.66-3.85,5.05-6.04h6.35c-1.75,5.6-4.56,9.91-10.8,12.62.85.71,1.16,1,1.67,1.67,1.02-.45,3.52-1.58,6.04-4.33,2.72-2.96,3.84-5.69,5.55-9.87.24-.58.33-.78.65-1.32Z"/>
    <path class="cls-2" d="M100.81,3.35c.41-.39.96-.74,1.22-.91-.53-.69-1.38-1.64-1.87-2.12l-1.16.95c.39.35.94.89,1.81,2.08Z"/>
    <path class="cls-2" d="M103.88,3.22c.79-.63.87-.69,1.22-.91-.37-.52-1.22-1.6-1.87-2.23l-1.12.93c.85.78,1.63,1.97,1.77,2.21Z"/>
    <path class="cls-2" d="M107.46,18.72c3.93-2.92,5.08-5.8,5.08-10.17V3.22c.16-.06.39-.19.39-.41,0-.26-.26-.26-.47-.28l-2.16-.13v6.34c0,3.18-.55,5.84-4.6,8.38,1.06.74,1.34,1.04,1.75,1.6Z"/>
    <path class="cls-2" d="M117.75,17.94c1.44-1.08,4.82-3.59,7.2-7.12-.51-.63-.57-.76-1.12-2.01-1.53,2.42-3.97,4.93-6.49,6.51V2.96c.2-.11.41-.19.41-.39,0-.24-.18-.24-.41-.26l-2.18-.11v13.91c0,.61-.04,1.26-.08,1.69l1.53,1.08c.36-.39.45-.43,1.14-.95Z"/>
    <rect class="cls-2" x="126.64" y="9.54" width="17.39" height="2.34"/>
    <path class="cls-2" d="M163.3,0c-1,0-1.85.84-1.85,1.95s.83,1.97,1.85,1.97,1.85-.89,1.85-1.97-.81-1.95-1.85-1.95ZM163.3,3.03c-.55,0-1-.48-1-1.08s.45-1.06,1-1.06,1.02.45,1.02,1.06-.47,1.08-1.02,1.08Z"/>
    <path class="cls-2" d="M159.78,3.66h-13.18v2.1h13.3c-2.72,8.83-8.03,11.25-10.98,12.59.26.22,1.1.89,1.61,1.78,6.59-3.42,9.17-7.1,11.63-14,.18-.52.24-.65.57-1.23l-1.55-1.43c-.2.09-.55.2-1.4.2Z"/>
    <path class="cls-2" d="M177.96,20.58h2.2v-6.9c1.57,1.32,2.68,1.99,3.36,2.36.65-1.34.94-1.77,1.3-2.12-2.14-1.15-3.44-2.32-4.66-3.42V1.75c.3-.09.53-.17.53-.41,0-.28-.28-.3-.41-.3l-2.32-.2v7.44c-.24-.28-.59-.65-1.42-1.69l-1.51,1.54c.55.76,1.42,1.93,2.93,3.49v8.96Z"/>
    <path class="cls-2" d="M170.7,4.61c.35-1.19.43-1.45.63-2.4.43-.09.59-.11.59-.37,0-.15-.22-.26-.35-.3l-2.16-.58c-.81,4.63-3.13,8.81-4.33,10.36.75.24,1.36.65,1.91,1.17.47-.67.87-1.34,1.26-2.08,1.75,1.38,1.97,1.56,2.79,2.4-1.24,2.42-3.58,5.02-5.57,6.3.98.71,1.32,1.04,1.75,1.62,1.2-.95,4.72-3.72,6.65-9.33.86-2.49,1.28-5.43,1.36-6.8h-4.54ZM171.96,10.67c-1.73-1.49-1.83-1.58-2.75-2.23.16-.37.39-.85.77-1.8h2.91c-.18,1.36-.49,2.77-.94,4.03Z"/>
    <path class="cls-2" d="M185.66,18.78c.24.26.98,1.04,1.32,1.75,2.77-.97,5.41-2.73,6.88-4.16v4.22h1.99v-4.31c2.16,1.99,4.68,3.33,7.16,4.07.35-.65.61-1.06,1.28-1.86-3.52-.84-5.68-2.08-6.87-2.88h6.77v-1.77h-8.34v-.67c.18-.02.61-.13.57-.41h2.52v-6.95h-3.66c.08-.17.12-.26.2-.46.2,0,.57-.02.57-.3,0-.19-.2-.26-.3-.28l-1.67-.48c-.28.74-.45,1.06-.71,1.51h-2.52v6.95h3.01v1.08h-8.28v1.77h6.81c-1.28,1.02-3.52,2.27-6.73,3.16ZM192.65,7.23h4.47v1.3h-4.47v-1.3ZM192.65,11.25v-1.36h4.47v1.36h-4.47Z"/>
    <path class="cls-2" d="M186.22,13.22c.22,0,.28-.26.35-.54.47-.15,1.22-.41,3.68-1.56,0-.19-.02-.5-.02-.8,0-.35.02-.65.08-1.17-3.44,1.41-4.17,1.56-4.72,1.65l.35,1.95c.04.22.12.48.28.48Z"/>
    <path class="cls-2" d="M188.89,8.72c.75-.82,1.02-1.08,1.42-1.41-.86-1-1.89-1.8-2.95-2.53l-1.28,1.34c1.1.82,1.85,1.49,2.81,2.6Z"/>
    <path class="cls-2" d="M202.88,6.28c.12.02.2.04.31.04.2,0,.35-.11.35-.3,0-.15-.16-.28-.3-.35l-1.83-.89c-.22.43-.51,1.04-1.93,2.79.67.24,1.4.71,1.63.89.61-.71,1.2-1.45,1.79-2.19Z"/>
    <path class="cls-2" d="M202.8,13.22c.47-.76.71-1.08,1.2-1.62-1.08-.97-2.72-1.93-3.82-2.49l-1.02,1.56c1.32.69,2.32,1.36,3.64,2.55Z"/>
    <path class="cls-2" d="M190.62,5.17h1.97v-1.23h4.5v1.23h2.1v-1.23h4.9v-1.69h-4.9v-.71c.45-.15.57-.22.57-.43,0-.17-.2-.26-.45-.28l-2.22-.13v1.56h-4.5v-.69c.41-.09.59-.13.59-.39,0-.22-.22-.28-.39-.3l-2.18-.15v1.54h-5.02v1.69h5.02v1.23Z"/>
    <path class="cls-2" d="M209.98,10.34h11.76c-.02.67-.12,3.96-.2,4.69-.35,3.31-.89,3.44-1.81,3.44-.28,0-1.12-.09-1.42-.13.47.93.61,1.52.69,2.29,1.26.04,2.66-.22,3.44-1.02,1.26-1.32,1.44-6.62,1.44-8.76v-2.38h-13.85c0-.24.02-1.34.02-1.6h12.67V1.32h-14.87v5.41c0,7.03-.87,10.19-2.52,12.88,1.08.28,1.67.67,2.1.97,1.73-2.96,2.36-6.75,2.56-10.23ZM210.05,3.12h10.39v2.01h-10.39v-2.01Z"/>
    <path class="cls-2" d="M211.04,11.81v6.95h2.1v-1.56h6.24v-5.39h-8.34ZM217.31,15.45h-4.17v-1.9h4.17v1.9Z"/>
    <path class="cls-2" d="M241.76,17.03c0,1.17-.1,1.38-1.1,1.38-.49,0-.98-.06-1.44-.19.45.69.75,1.32.94,2.45.65.06,1.69-.02,2.26-.22.77-.28,1.34-.69,1.34-2.77V1.21h-7.63v7.08h5.63v8.74ZM241.7,6.66h-3.56v-1.32h3.56v1.32ZM241.7,3.96h-3.56v-1.25h3.56v1.25Z"/>
    <path class="cls-2" d="M234.37,1.19h-7.67v19.32h2.05v-12.23h5.61V1.19ZM232.34,6.71h-3.58v-1.36h3.58v1.36ZM232.34,3.96h-3.58v-1.21h3.58v1.21Z"/>
    <path class="cls-2" d="M239.28,9.82h-8.14v8.66h1.91v-.93h6.22v-7.73ZM237.38,15.86h-4.33v-1.43h4.33v1.43ZM237.38,12.87h-4.33v-1.36h4.33v1.36Z"/>
    <path class="cls-2" d="M250.65,18.09c1.16,0,2.22-1.36,3.32-4.03,1.57-3.83,2.01-7.4,2.24-9.89,3.58.02,5.82,2.86,5.82,6.1,0,1.26-.41,6.08-6.47,7.42.41.48.81.97,1.38,1.99,1.24-.45,3.19-1.19,4.8-3.03,1.22-1.41,2.38-3.59,2.38-6.4,0-5.06-3.76-8.12-8.05-8.12-5.59,0-9.42,5.15-9.42,9.69,0,3.66,2.48,6.25,4.01,6.25ZM253.96,4.54c-.08,2.79-.59,5.24-1.55,7.85-.53,1.41-1.12,3.05-1.89,3.05s-1.87-1.6-1.87-3.76c0-2.75,2.1-6.28,5.31-7.14Z"/>
    <path class="cls-2" d="M271.99,17.66v2.01h12.83v-2.01h-5.43v-5.52h4.52v-1.93h-4.52v-2.6c.41-.22.47-.24.47-.39,0-.22-.22-.26-.39-.28l-2.22-.19v3.46h-4.41v1.93h4.41v5.52h-5.27Z"/>
    <path class="cls-2" d="M268.79,9.28v1.28c-.98,1.02-2.03,1.8-3.28,2.51.65.59.9.89,1.38,1.71.49-.35,1.04-.71,1.89-1.47v7.36h2.16v-9.59c1.48-1.78,2.52-3.74,3.19-5.19h10.66v-1.99h-9.87c.35-1.02.49-1.62.63-2.14.53-.15.55-.19.55-.37,0-.19-.22-.26-.33-.28l-2.22-.48c-.12.8-.33,1.93-.79,3.27h-6.49v1.99h5.72c-.79,1.73-1.67,2.9-2.18,3.53l-1.04-.13Z"/>
    <path class="cls-2" d="M296.93,1.51c.22-.11.47-.24.47-.45,0-.3-.33-.32-.47-.32l-2.2-.09v1.99h-7.12v8.37c0,2.57-.1,5.58-1.71,8.61.85.22,1.24.35,1.99.87,1.47-3.07,1.79-5.65,1.79-9.78v-6.32h6.61v1.3h-5.74v1.67h5.74v1.1h-4.76v6.86h4.76v1.19h-6.29v1.73h6.29v2.36h1.95v-2.36h6.65v-1.73h-6.65v-1.19h4.84v-6.86h-4.84v-1.1h6.41v-1.67h-6.41v-.76c.43-.13.61-.17.61-.39,0-.06-.04-.11-.08-.15h6.2v-1.75h-8.05v-1.13ZM296.3,13.81h-2.79v-1.28h2.79v1.28ZM296.3,11.17h-2.79v-1.21h2.79v1.21ZM298.25,9.95h2.85v1.21h-2.85v-1.21ZM298.25,12.53h2.85v1.28h-2.85v-1.28Z"/>
    <path class="cls-2" d="M306.14,13.78l.53,2.14c.06.24.16.41.31.41.28,0,.35-.32.43-.67.63-.35,1.32-.71,2.64-1.54v6.43h2.11V1.58c.16-.07.47-.2.47-.46,0-.19-.18-.24-.39-.26l-2.2-.17v6.77c-.43-.99-1.28-2.6-2.03-3.72l-1.73,1.21c.96,1.51,1.28,2.03,2.11,3.98.57-.52,1.36-.89,1.65-1.04v3.87c-1.1.67-2.52,1.41-3.91,2.01Z"/>
    <path class="cls-2" d="M324.92,4.63c-.57-1.19-1.53-2.73-2.32-3.76l-1.59,1.21c.87,1.17,1.36,2.08,2.2,3.68.41-.37,1.2-.89,1.71-1.13Z"/>
    <path class="cls-2" d="M312.33,18.98c.77.58,1.12.89,1.59,1.64,2.38-2.08,3.91-4.2,5-7.75,1,3.01,2.77,5.84,5.11,7.7.33-.43.92-1.12,1.65-1.6-1.63-1.26-5-4.03-5.68-10.02h5.08v-2.12h-5.25V1.49c.16-.05.51-.15.51-.43,0-.24-.24-.28-.39-.28l-2.3-.15v6.21h-4.45v2.12h4.41c-.35,6.17-4.07,9.07-5.29,10.02Z"/>
    <path class="cls-2" d="M332.48,3.46c-1.46-1.3-2.91-2.16-3.36-2.42l-1.22,1.71c1.57.87,3.17,2.32,3.4,2.53.26-.52.79-1.32,1.18-1.82Z"/>
    <path class="cls-2" d="M330.65,12.18c-.77,1.9-2.67,5.19-4.25,7.16l1.87,1.26c.08.04.18.13.3.13.1,0,.2-.09.2-.24,0-.11-.04-.24-.08-.5.94-1.39,2.5-4.24,3.3-6.1-.28-.26-.94-.89-1.34-1.71Z"/>
    <path class="cls-2" d="M330.84,8.55c-.81-.69-2.4-1.84-3.48-2.36l-1.16,1.86c1.53.84,2.56,1.56,3.48,2.36.51-.89.85-1.45,1.16-1.86Z"/>
    <path class="cls-2" d="M331.86,20.88c3.48-1.95,4.92-4.52,5.47-9.39.39-.09.59-.13.59-.35s-.2-.33-.41-.35l-2.22-.3c-.29,5-1.89,6.88-4.94,8.27.65.67,1.12,1.3,1.51,2.12Z"/>
    <path class="cls-2" d="M338.81,17.94c0,1.86.65,2.19,2.28,2.19h2.08c1.57,0,2.2-1.43,2.36-3.7-.77-.24-1.26-.56-1.81-1-.1,2.12-.28,2.62-1.08,2.62h-1.06c-.55,0-.63-.22-.63-.89v-6.73h3.28V1.47h-11v8.96h5.59v7.51ZM335.37,8.4V3.48h6.69v4.91h-6.69Z"/>
    <path class="cls-2" d="M362.69,7.66v-1.19c.65.58,1.57,1.17,2.01,1.47.28-.8.83-1.36,1.24-1.71-2.89-1.43-4.84-3.85-5.29-4.59.26-.04.51-.13.51-.3,0-.19-.2-.26-.47-.32l-1.97-.52c-1.69,3.83-4.68,5.88-5.7,6.58,1.18.56,1.55,1.02,1.77,1.3.83-.61,1.81-1.69,1.95-1.84v1.13h1.89v1.43h-4.13v5.8h3.5c-.37.76-1.73,3.03-5.35,3.96.57.54,1.1,1.1,1.38,1.79,3.32-1.3,4.78-3.42,5.41-4.5,1.73,2.86,4.07,4.02,4.92,4.41.18-.56.43-1.02,1.32-1.73-.87-.28-3.21-1.36-4.82-3.94h3.8v-5.8h-4.15v-1.43h2.16ZM358.52,13.18h-2.08v-2.32h2.2c0,1.26-.06,1.86-.12,2.32ZM362.73,10.86v2.32h-2.3c.04-.35.1-.95.1-2.32h2.2ZM357.38,5.84c1.08-1.15,1.83-2.27,2.18-2.79.81,1.1,1.24,1.69,2.42,2.79h-4.6Z"/>
    <path class="cls-2" d="M347.6,15.77c1.06-1.73,1.75-3.89,1.97-4.65v9.52h1.77v-10.32c.28.8.71,1.95,1.42,3.31.53-.78.69-1.02,1.38-1.65-.81-.89-1.91-2.25-2.81-4.89v-.63h2.28v-1.82h-2.28V1.51c.22-.06.45-.15.45-.39,0-.26-.31-.26-.49-.28l-1.73-.11v3.92h-2.97v1.82h2.89c-.51,2.4-1.48,5.06-3.38,7.75.26.15.73.43,1.48,1.56Z"/>
    <path class="cls-2" d="M373.88,16.86c0-.13-.12-.24-.28-.35l-1.59-.97c-1.26,1.56-2.48,2.73-3.94,3.72.45.26,1.12.74,1.65,1.34,1.71-1.47,2.64-2.36,3.52-3.48.24.04.65.09.65-.26Z"/>
    <path class="cls-2" d="M380.45,15.43l-1.59,1.06c.77,1.15,2.24,2.94,3.62,4.09.53-.52.98-.91,1.59-1.32-1.4-1.08-2.4-2.25-3.62-3.83Z"/>
    <path class="cls-2" d="M375.16,15.26v5.35h2.2v-5.5c1.89-.13,2.22-.15,5.15-.39.41.58.63.93,1.24,2.03.81-.65,1.32-.95,1.77-1.19-1.1-2.01-2.73-4.05-4.01-5.37l-1.59,1.19c.47.52,1.18,1.34,1.36,1.58-1.93.11-3.58.22-4.88.28,1.06-.89,2.3-2.03,3.68-3.55.61.02.81.02.81-.22,0-.15-.14-.26-.26-.35l-1.79-1.1c-1.12,1.45-2.38,2.75-3.7,3.96-.47-.37-.94-.71-1.48-1.06.75-.69,1.67-1.69,2.36-2.55.08.02.2.04.28.04.12,0,.39-.02.39-.24,0-.24-.18-.33-.49-.48h6.9v2.25h2.05v-3.94h-7.79v-1.6h7.06v-1.88h-7.06v-.97c.45-.2.57-.26.57-.48,0-.26-.31-.28-.53-.28l-2.24-.11v1.84h-7.08v1.88h7.08v1.6h-7.91v3.94h2.05v-2.25h4.78c-.41.58-1.34,1.62-1.99,2.29-.85-.48-1.32-.69-1.73-.87l-1.18,1.67c1.4.56,3.84,2.01,4.43,2.58-.94.04-5.57.15-6.61.22l.37,2.06c.08.41.1.48.26.48.22,0,.31-.19.43-.45.53-.04,7.1-.41,7.1-.41Z"/>
    <path class="cls-2" d="M396.05,3.87c-1.18-.8-2.72-1.71-5.43-2.77l-1.2,1.75c1.59.63,3.44,1.47,5.33,2.92.31-.52.9-1.43,1.3-1.9Z"/>
    <path class="cls-2" d="M393.65,8.96c-1.26-1.02-3.86-2.4-5.17-2.94l-1.2,1.88c.61.26,3.03,1.3,5.04,2.99.12-.24.63-1.17,1.32-1.93Z"/>
    <path class="cls-2" d="M389.61,19.99c.08.17.18.3.3.3.24,0,.31-.32.33-.52,3.19-1.26,10.15-5.13,14.5-12.03-.65-.71-.87-.99-1.4-1.88-3.54,5.8-8.97,9.91-14.81,12.03l1.08,2.1Z"/>
    <path class="cls-2" d="M406,17.68c.69.65.96,1.06,1.4,1.97,2.08-.93,5.53-3.07,8.54-7.1,3.32,2.62,5.06,5.13,6.18,6.82.69-.89.79-.97,1.65-1.88-1.97-2.66-4.96-5.35-6.69-6.67,1.3-2.16,1.87-3.55,2.75-5.78.22-.54.43-.95.77-1.41l-1.16-1.21c-.33.11-1.06.15-1.38.15h-10.27v2.12h9.66c-.73,2.32-1.59,4.5-3.56,7.01-2.28,2.88-4.68,4.74-7.89,5.97Z"/>
    <rect class="cls-2" x="428.3" y="2.14" width="11.49" height="2.06"/>
    <path class="cls-2" d="M425.43,9.95h7.93c-.06,2.86-.47,6.69-6.37,8.44.92.82,1.32,1.43,1.57,1.82,2.58-.89,3.99-2.31,4.64-3.05,1.08-1.19,2.22-3.18,2.3-7.21h7.06v-2.06h-17.13v2.06Z"/>
    <path class="cls-2" d="M457.18,8.48l-1.81,1.17c.89,1.02,1.93,2.38,3.25,4.56-4.88.85-7.26,1.26-9.44,1.54,1.06-2.29,1.99-4.65,2.83-7.03.3-.85,1.63-5.04,1.95-5.97.12-.02.49-.09.49-.37,0-.15-.14-.24-.39-.3l-2.24-.65c-1.12,5.28-3.36,11.25-5,14.58-1.16.11-1.61.13-2.16.15l.47,2.16c.04.22.14.39.31.39.14,0,.22-.06.33-.39,5.43-.76,6.26-.91,13.83-2.31.55,1.1.87,1.9,1.22,2.88.55-.61,1.53-1.34,1.79-1.54-.73-2.14-3.23-6.32-5.43-8.87Z"/>
    <path class="cls-2" d="M185.63,35.03h-10.55v67.09h10.55v-37.54c5.81,1.7,20.35,6.57,36.2,16.45l4.51-11.65c-12.9-6.75-33.89-8.87-40.72-9.39v-24.95Z"/>
    <path class="cls-2" d="M209.86,44.46c2.6,0,4.72-2.11,4.72-4.72s-2.11-4.72-4.72-4.72-4.72,2.11-4.72,4.72,2.11,4.72,4.72,4.72Z"/>
    <path class="cls-2" d="M221.63,35.03c-2.6,0-4.72,2.11-4.72,4.72s2.11,4.72,4.72,4.72,4.72-2.11,4.72-4.72-2.11-4.72-4.72-4.72Z"/>
    <path class="cls-2" d="M153.12,35.03h-12.54c0,.41.15,14.41-5.76,29.49-13.95-7.12-27.18-11.48-27.18-11.48l-2.01,3.28s11.73,4.36,26.12,14.96c-5.92,11.4-15.79,22.35-32.31,27.52l1.09,3.31s23.35-4.85,38.93-24.72c3.72,3.17,7.5,6.74,11.22,10.75l6.87-8.63c-3.71-3.46-8.25-6.68-13.05-9.61,5.15-9.03,8.62-20.45,8.62-34.87Z"/>
    <rect class="cls-2" x="305.27" y="68.15" width="56.18" height="5.11"/>
    <path class="cls-2" d="M288.14,35.03h-10.67v15.82h-18.37v-15.82h-10.55v15.82h-13.72v4.02h13.72v22.13h10.55v-22.13h18.37v19.88c0,8.13-2.77,19.02-19.13,23.77l1.16,3.44c7.63-.49,28.65-5.58,28.65-27.22v-19.88h13.72v-4.02h-13.72v-15.82Z"/>
    <path class="cls-2" d="M414.64,47.74c6.34-.9,12.84-2.04,19.35-3.48l-3.11-9.23c-17.18,7.64-36.4,11.15-51.11,12.76l.96,2.84c7.06-.23,14.93-.72,23.24-1.58v16.03h-30.6v4.02h30.6v5.65h0c0,8.13-2.77,19.02-19.13,23.77l1.16,3.44c7.63-.49,28.65-5.58,28.65-27.22h0v-5.65h25.75v-4.02h-25.75v-17.34Z"/>
  </g>
</svg>