<?xml version="1.0" encoding="UTF-8"?>
<svg id="_レイヤー_1" data-name="レイヤー 1" xmlns="http://www.w3.org/2000/svg" xmlns:xlink="http://www.w3.org/1999/xlink" viewBox="0 0 131.01 145.5">
  <defs>
    <style>
      .cls-1 {
        fill: url(#_名称未設定グラデーション_624);
        stroke-width: 0px;
      }
    </style>
    <linearGradient id="_名称未設定グラデーション_624" data-name="名称未設定グラデーション 624" x1="65.51" y1="145.83" x2="65.51" y2="7.63" gradientUnits="userSpaceOnUse">
      <stop offset="0" stop-color="#1b4f97"/>
      <stop offset="1" stop-color="#3a6fad"/>
    </linearGradient>
  </defs>
  <path class="cls-1" d="M65.51,0C29.33,0,0,29.33,0,65.51v77.11c0,1.59,1.29,2.89,2.89,2.89h33.17c1.59,0,2.89-1.29,2.89-2.89v-17.23c8.12,3.61,17.1,5.63,26.56,5.63,36.18,0,65.51-29.33,65.51-65.51S101.68,0,65.51,0ZM111.51,99.95c-.46-11.19-9.18-20.24-20.23-21.2.28-1.46.44-2.96.44-4.5,0-13.32-10.8-24.11-24.11-24.11s-24.11,10.8-24.11,24.11c0,.27.03.52.04.79-12.02,1.37-21.36,11.56-21.36,23.94s9.35,22.59,21.38,23.95h-.55c-.23,0-.46.03-.69.03-.44,0-.88,0-1.32-.03,0,0,0,0-.01,0h-.34c-.34,0-.68-.04-1-.11-6.4-.56-12.2-3.11-16.43-7.31-4.77-4.74-7.24-11.28-6.94-18.4.3-7.12,3.23-13.73,8.25-18.58,1.92-1.86,4.06-3.36,6.35-4.52-.67-2.72-1.03-5.57-1.03-8.5,0-19.69,15.97-35.66,35.66-35.66s35.66,15.97,35.66,35.66c0,4.18-.73,8.19-2.05,11.92,7.47,3.83,12.56,11.32,12.56,19.94,0,.88-.07,1.74-.17,2.59Z"/>
</svg>